PathFileType	4	(X/Y/Z)	2014001\dynamic\2014001_C3_03.trc
DataRate	CameraRate	NumFrames	NumMarkers	Units	OrigDataRate	OrigDataStartFrame	OrigNumFrames
100.000000	100.000000	4	52	mm	100.000000	160	183
Frame#	Time	L_IAS			L_IPS			R_IPS			R_IAS			L_FTC			L_FLE			L_FME			L_FAX			L_TTC			L_FAL			L_TAM			L_FCC			L_FM1			L_FM2			L_FM5			R_FTC			R_FLE			R_FME			R_FAX			R_TTC			R_FAL			R_TAM			R_FCC			R_FM1			R_FM2			R_FM5			CV7			TV10			SXS			SJN			L_SIA			L_SRS			L_SAA			L_SAE			L_HLE			L_HME			L_UOA			L_RSP			L_UHE			L_HM2			L_HM5			R_SIA			R_SRS			R_SAA			R_SAE			R_HLE			R_HME			R_UOA			R_RSP			R_UHE			R_HM2			R_HM5			
		X1	Y1	Z1	X2	Y2	Z2	X3	Y3	Z3	X4	Y4	Z4	X5	Y5	Z5	X6	Y6	Z6	X7	Y7	Z7	X8	Y8	Z8	X9	Y9	Z9	X10	Y10	Z10	X11	Y11	Z11	X12	Y12	Z12	X13	Y13	Z13	X14	Y14	Z14	X15	Y15	Z15	X16	Y16	Z16	X17	Y17	Z17	X18	Y18	Z18	X19	Y19	Z19	X20	Y20	Z20	X21	Y21	Z21	X22	Y22	Z22	X23	Y23	Z23	X24	Y24	Z24	X25	Y25	Z25	X26	Y26	Z26	X27	Y27	Z27	X28	Y28	Z28	X29	Y29	Z29	X30	Y30	Z30	X31	Y31	Z31	X32	Y32	Z32	X33	Y33	Z33	X34	Y34	Z34	X35	Y35	Z35	X36	Y36	Z36	X37	Y37	Z37	X38	Y38	Z38	X39	Y39	Z39	X40	Y40	Z40	X41	Y41	Z41	X42	Y42	Z42	X43	Y43	Z43	X44	Y44	Z44	X45	Y45	Z45	X46	Y46	Z46	X47	Y47	Z47	X48	Y48	Z48	X49	Y49	Z49	X50	Y50	Z50	X51	Y51	Z51	X52	Y52	Z52	

161	1.6	354.8973693847657	888.0939331054692	1518.757080078125	278.2442016601564	922.088256835938	1342.166137695313	188.881820678711	917.8611450195317	1342.803955078125	115.4167098999024	884.8458862304692	1521.300903320313	414.9486389160159	801.3906250000005	1450.1484375	412.3988037109377	463.8514099121096	1564.286376953126	298.2701416015626	448.857849121094	1600.384277343751	416.1383361816409	409.1639099121096	1535.426513671875	379.1903076171876	374.9317321777345	1598.069824218751	380.8292846679689	104.6255645751954	1431.414184570313	298.2691650390626	103.9914169311524	1467.850952148438	330.7851867675782	70.39640045166018	1387.507446289063	334.0994567871095	38.41872024536134	1562.086181640626	390.9395141601565	50.44227981567386	1558.451416015626	423.1282043457034	43.66021728515626	1507.222778320313	61.99787902832034	788.458618164063	1425.971557617188	111.5060806274415	438.7344360351565	1423.980834960938	230.8616333007814	431.805358886719	1437.894165039063	111.3645477294922	373.3868713378907	1399.651245117188	161.4573516845704	365.1170654296876	1463.5048828125	172.1573181152344	68.99521636962893	1332.22314453125	254.8361358642579	86.99031829833987	1371.552001953125	230.0520019531251	30.81607627868654	1290.34326171875	239.9404602050782	26.21432113647462	1476.86572265625	174.9689178466797	36.64870071411134	1481.362548828125	130.7749938964844	23.49614143371583	1419.138549804688	221.8550262451173	1388.005615234375	1392.7978515625	224.7909698486329	1157.688354492188	1323.44970703125	246.3161926269532	1158.3994140625	1557.602783203126	240.0659179687501	1321.335327148438	1518.438598632813	310.6520996093751	1198.506713867188	1310.38818359375	303.4929504394532	1328.594970703125	1336.43701171875	417.7231445312502	1328.890747070313	1393.182739257813	410.5271301269534	1337.496948242188	1436.016723632813	491.8968811035159	1067.255737304688	1354.847412109375	415.6028442382815	1035.463134765625	1332.525634765625	462.8095703125002	1040.735961914063	1320.214477539063	485.6589050292971	822.0503540039067	1398.00244140625	544.891296386719	834.8820800781255	1344.818115234375	498.2386779785159	735.2224731445315	1404.739624023438	551.1453857421877	760.7775878906252	1318.74169921875	104.1282653808594	1198.727661132813	1336.616088867188	132.104232788086	1320.296630859375	1359.76806640625	37.27450942993165	1320.354736328125	1446.45166015625	56.30955886840823	1325.103271484375	1492.424194335938	-34.95083618164064	1026.527954101563	1504.1884765625	37.39616775512697	999.2849121093755	1472.63427734375	-9.238656997680668	993.2918090820317	1476.81103515625	5.56028461456299	864.0754394531255	1664.597290039063	-60.58847427368167	844.213500976563	1621.541503906251	-9.700211524963382	795.0502929687505	1726.976684570313	-64.51150512695315	769.9932250976567	1644.232788085938	
162	1.61	354.5359802246095	887.2158813476567	1528.2646484375	278.2454223632814	921.187133789063	1351.52490234375	189.0491180419922	917.0851440429692	1351.995361328125	115.0529861450196	883.7149047851567	1530.25390625	414.8713378906252	800.4384155273442	1459.989868164063	410.9328613281252	463.3959960937502	1576.970825195313	297.0356445312501	449.3651428222659	1612.917602539063	414.662048339844	407.3998718261721	1550.345581054688	377.7312927246095	376.2434997558595	1614.562744140626	380.3194274902345	96.98625946044928	1465.014770507813	297.8883056640626	98.30298614501959	1501.408447265625	330.3796386718751	60.07675933837893	1423.090942382813	334.5131225585939	38.96145629882814	1599.447875976563	391.2675781250002	51.05910491943362	1594.793090820313	423.295593261719	41.36321258544923	1543.983886718751	61.93221282958987	787.8643188476567	1433.920654296875	111.6152496337891	438.4312438964846	1427.1962890625	230.8300018310548	431.2289123535159	1441.081909179688	111.5306549072266	373.2233886718751	1402.284545898438	161.5956573486329	364.3269958496095	1466.016723632813	172.5436096191407	69.13753509521487	1332.483642578125	255.2133789062501	87.03025054931643	1372.245971679688	230.4978485107423	31.20668983459474	1290.592407226563	239.8605346679689	26.04629135131837	1477.083740234375	174.8569946289063	36.5982131958008	1481.551391601563	130.8490447998047	23.4739055633545	1419.088989257813	221.9719696044923	1387.1669921875	1402.814208984375	224.3647613525392	1156.950317382813	1333.119750976563	246.2574310302736	1157.226806640625	1567.335571289063	240.3821105957032	1320.306884765625	1528.378173828125	309.8291320800782	1197.373657226563	1319.855102539063	303.1075134277345	1327.545654296875	1346.095825195313	417.3877868652346	1327.554565429688	1402.197998046875	410.5291137695315	1336.005004882813	1444.908325195313	491.6383361816409	1066.8095703125	1360.934814453125	415.2604980468752	1034.996826171875	1339.224975585938	462.2491760253909	1040.447143554688	1326.539916992188	486.4130859375002	821.3193359375005	1402.46142578125	544.9873046875002	834.5163574218755	1348.561767578125	499.1839904785159	734.5088500976565	1408.395629882813	550.951110839844	760.5268554687502	1321.9599609375	103.5576248168946	1198.178588867188	1347.027221679688	131.9017028808594	1319.6201171875	1370.07958984375	37.40939712524415	1319.956298828125	1456.961669921875	56.66848373413089	1324.901489257813	1502.688110351563	-36.0303077697754	1026.904052734375	1517.55322265625	36.15648269653322	998.8154296875005	1486.598266601563	-10.5982666015625	992.995239257813	1490.390625	5.118120193481447	868.5026855468755	1681.934570312501	-60.92957687377933	847.2350463867192	1639.573974609376	-9.808530807495121	801.1736450195317	1746.257812500001	-64.43431091308597	773.6284179687505	1664.200195312501	
163	1.62	354.2947998046876	886.044311523438	1537.807617187501	278.3176574707032	920.095092773438	1360.96142578125	189.2698822021485	916.178833007813	1361.268676757813	114.8059234619141	882.4916381835942	1539.335327148438	414.7786560058596	799.1679077148442	1469.679443359375	409.4641723632815	462.5072326660159	1588.998779296876	295.7747192382814	449.3963928222659	1624.845336914063	413.2133483886721	405.325378417969	1564.838500976563	376.2873840332032	377.4131469726564	1630.529052734376	379.837860107422	90.19099426269534	1499.0751953125	297.5149841308595	93.54148101806643	1535.282958984375	329.9843139648439	50.74067687988284	1459.322631835938	334.8211975097657	40.65317535400392	1636.783203125001	391.5123291015627	52.71814727783206	1631.148925781251	423.4053344726565	40.09650802612306	1580.973876953126	61.85355758666995	787.2293090820317	1442.0087890625	111.7126998901368	438.124938964844	1430.581420898438	230.7600860595704	430.6198730468752	1444.471557617188	111.6909866333008	373.0701599121095	1405.061645507813	161.6861724853516	363.4976501464845	1468.656005859375	172.9132690429688	69.31481933593753	1332.748291015625	255.5853118896486	87.0730895996094	1373.0595703125	230.9489898681642	31.64331626892091	1290.8359375	239.7813720703126	25.88203811645509	1477.295166015625	174.757064819336	36.52453231811525	1481.73095703125	130.9287414550782	23.44519805908204	1419.032104492188	222.1731109619142	1386.153930664063	1412.8798828125	224.069061279297	1156.057006835938	1342.838012695313	246.2724151611329	1155.8681640625	1577.108398437501	240.7553863525392	1319.096923828125	1538.369384765626	309.1419677734376	1196.102416992188	1329.393188476563	302.8305664062501	1326.355224609375	1355.831420898438	417.158874511719	1326.049438476563	1411.329833984375	410.6066894531252	1334.353393554688	1453.9169921875	491.3877563476565	1066.162719726563	1367.338134765625	414.9250183105471	1034.284545898438	1346.328857421875	461.689392089844	1039.926879882813	1333.209228515625	487.1073303222659	820.3717651367192	1407.205078125	545.1013183593752	833.9805297851567	1352.73291015625	500.1254577636721	733.615417480469	1412.433471679688	550.8436279296877	760.1166992187502	1325.692749023438	103.1239089965821	1197.472534179688	1357.4384765625	131.8006439208985	1318.772216796875	1380.419311523438	37.6294403076172	1319.355102539063	1467.499755859375	57.11412048339847	1324.488403320313	1512.9736328125	-36.98536682128908	1027.076538085938	1530.745483398438	35.05769729614259	998.1779785156255	1500.395141601563	-11.82836341857911	992.5383911132817	1503.787963867188	4.808298110961916	872.7257690429692	1698.894042968751	-61.10595703125003	850.0581665039067	1657.225463867188	-9.757539749145511	807.0855102539067	1765.047607421876	-64.14988708496097	777.0957031250005	1683.710937500001	
164	1.63	354.1595153808595	884.5934448242192	1547.405029296876	278.4675903320314	918.8213500976567	1370.48779296875	189.5448760986329	915.1472167968755	1370.635620117188	114.6583404541016	881.1838989257817	1548.551391601563	414.6731872558596	797.5977172851567	1479.241821289063	408.0019226074221	461.2103576660159	1600.413574218751	294.478240966797	448.9769287109377	1636.203979492188	411.7936706542971	402.9866638183596	1578.934326171876	374.8568420410157	378.4606018066407	1645.988525390626	379.383026123047	84.38172912597659	1533.422241210938	297.1369018554689	89.83863067626956	1569.288574218751	329.5944824218751	42.54417037963869	1496.02490234375	334.9598693847657	43.56931686401369	1673.890014648438	391.6165771484377	55.47906875610354	1667.358276367188	423.4121093750002	39.9283905029297	1618.035400390626	61.74852371215823	786.562377929688	1450.246704101563	111.782943725586	437.8157958984377	1434.139282226563	230.6492919921876	429.9768066406252	1448.079345703125	111.8349990844727	372.9299926757814	1407.98291015625	161.7164001464844	362.6381835937501	1471.427734375	173.2541961669922	69.54205322265628	1333.023803710938	255.9448699951173	87.13061523437503	1373.987426757813	231.3948516845704	32.14357757568361	1291.0771484375	239.7036895751954	25.72389602661134	1477.4921875	174.6707000732422	36.42757415771486	1481.896118164063	131.0115509033204	23.4129867553711	1418.966064453125	222.4597930908204	1384.974243164063	1422.996826171875	223.905731201172	1155.015380859375	1352.611450195313	246.3695526123048	1154.343505859375	1586.924072265626	241.1920623779298	1317.71923828125	1548.415893554688	308.6013793945314	1194.7060546875	1339.007690429688	302.6642150878907	1325.033081054688	1365.646118164063	417.0392761230471	1324.3984375	1420.576782226563	410.7734375000002	1332.573364257813	1463.054077148438	491.1492309570315	1065.3232421875	1374.068725585938	414.5956726074221	1033.337036132813	1353.84765625	461.1307373046877	1039.185180664063	1340.2333984375	487.763122558594	819.2188110351567	1412.259643554688	545.242126464844	833.2854614257817	1357.333862304688	501.0708007812502	732.546569824219	1416.8642578125	550.8270263671877	759.559753417969	1329.934814453125	102.8299942016602	1196.612426757813	1367.85546875	131.8043365478516	1317.76123046875	1390.788208007813	37.93581390380861	1318.564331054688	1478.074096679688	57.64852142333987	1323.868041992188	1523.294921875	-37.81245422363283	1027.045776367188	1543.770141601563	34.10042190551759	997.3800659179692	1514.01025390625	-12.92449188232423	991.919555664063	1517.03857421875	4.641497135162355	876.7118530273442	1715.456909179688	-61.11726760864261	852.664672851563	1674.479980468751	-9.544522285461429	812.7528686523442	1783.325195312501	-63.67767715454104	780.3750000000005	1702.753662109376	
